<svg width="694" height="170" viewBox="0 0 694 170" fill="none" xmlns="http://www.w3.org/2000/svg">
<g filter="url(#filter0_d)">
<rect x="4" width="686" height="162" rx="29" fill="black"/>
</g>
<path d="M106.089 59.7567H125.461V112H138.684V59.7567H158.055V48.7273H106.089V59.7567ZM161.438 112H174.599V85.1523C174.599 79.3132 178.862 75.2969 184.671 75.2969C186.493 75.2969 188.996 75.6058 190.232 76.0075V64.3292C189.058 64.0511 187.42 63.8658 186.092 63.8658C180.778 63.8658 176.422 66.9553 174.692 72.8253H174.197V64.5455H161.438V112ZM209.209 112.896C216.222 112.896 220.764 109.837 223.081 105.419H223.451V112H235.933V79.9929C235.933 68.6854 226.356 63.9276 215.79 63.9276C204.42 63.9276 196.944 69.3651 195.121 78.0156L207.293 79.0043C208.189 75.853 211.001 73.5359 215.728 73.5359C220.207 73.5359 222.772 75.7912 222.772 79.6839V79.8693C222.772 82.9279 219.528 83.3295 211.279 84.1328C201.887 84.9979 193.453 88.1491 193.453 98.7461C193.453 108.138 200.157 112.896 209.209 112.896ZM212.978 103.813C208.931 103.813 206.027 101.928 206.027 98.3136C206.027 94.6062 209.085 92.7834 213.72 92.1346C216.593 91.733 221.289 91.0533 222.864 90.0028V95.0387C222.864 100.013 218.755 103.813 212.978 103.813ZM267.585 112.927C280.221 112.927 288.161 105.512 288.779 94.6062H276.359C275.587 99.6729 272.25 102.515 267.739 102.515C261.591 102.515 257.606 97.3558 257.606 88.2727C257.606 79.3132 261.622 74.1847 267.739 74.1847C272.559 74.1847 275.648 77.3668 276.359 82.0938H288.779C288.223 71.1261 279.912 63.9276 267.523 63.9276C253.126 63.9276 244.228 73.9066 244.228 88.4581C244.228 102.886 252.972 112.927 267.585 112.927ZM297.205 112H310.366V96.9233L313.919 92.8761L326.864 112H342.281L323.775 85.0906L341.385 64.5455H326.277L311.077 82.5572H310.366V48.7273H297.205V112Z" fill="white"/>
<path d="M403.916 70.8789C402.155 56.2656 391.095 47.8622 376.451 47.8622C359.737 47.8622 346.977 59.6641 346.977 80.3636C346.977 101.001 359.52 112.865 376.451 112.865C392.67 112.865 402.464 102.083 403.916 90.4354L390.384 90.3736C389.118 97.1396 383.804 101.032 376.667 101.032C367.059 101.032 360.54 93.8956 360.54 80.3636C360.54 67.2024 366.966 59.695 376.76 59.695C384.082 59.695 389.365 63.9276 390.384 70.8789H403.916ZM434.703 112.927C449.1 112.927 458.059 103.071 458.059 88.4581C458.059 73.7521 449.1 63.9276 434.703 63.9276C420.306 63.9276 411.346 73.7521 411.346 88.4581C411.346 103.071 420.306 112.927 434.703 112.927ZM434.765 102.732C428.122 102.732 424.724 96.6452 424.724 88.3654C424.724 80.0856 428.122 73.9684 434.765 73.9684C441.284 73.9684 444.682 80.0856 444.682 88.3654C444.682 96.6452 441.284 102.732 434.765 102.732ZM509.245 64.5455H495.311L485.486 98.4989H484.992L475.137 64.5455H461.234L477.824 112H492.654L509.245 64.5455ZM515.98 112H529.141V64.5455H515.98V112ZM522.591 58.4283C526.515 58.4283 529.728 55.4315 529.728 51.755C529.728 48.1094 526.515 45.1126 522.591 45.1126C518.698 45.1126 515.485 48.1094 515.485 51.755C515.485 55.4315 518.698 58.4283 522.591 58.4283ZM557.17 112.772C564.832 112.772 568.818 108.354 570.64 104.4H571.197V112H584.172V48.7273H571.042V72.5163H570.64C568.879 68.6545 565.079 63.9276 557.139 63.9276C546.728 63.9276 537.923 72.022 537.923 88.3345C537.923 104.214 546.357 112.772 557.17 112.772ZM561.341 102.299C554.884 102.299 551.362 96.5526 551.362 88.2727C551.362 80.0547 554.822 74.4009 561.341 74.4009C567.736 74.4009 571.32 79.8075 571.32 88.2727C571.32 96.7379 567.675 102.299 561.341 102.299Z" fill="#DC2626"/>
<defs>
<filter id="filter0_d" x="0" y="0" width="694" height="170" filterUnits="userSpaceOnUse" color-interpolation-filters="sRGB">
<feFlood flood-opacity="0" result="BackgroundImageFix"/>
<feColorMatrix in="SourceAlpha" type="matrix" values="0 0 0 0 0 0 0 0 0 0 0 0 0 0 0 0 0 0 127 0"/>
<feOffset dy="4"/>
<feGaussianBlur stdDeviation="2"/>
<feColorMatrix type="matrix" values="0 0 0 0 0 0 0 0 0 0 0 0 0 0 0 0 0 0 0.25 0"/>
<feBlend mode="normal" in2="BackgroundImageFix" result="effect1_dropShadow"/>
<feBlend mode="normal" in="SourceGraphic" in2="effect1_dropShadow" result="shape"/>
</filter>
</defs>
</svg>
