<svg width="694" height="170" viewBox="0 0 694 170" fill="none" xmlns="http://www.w3.org/2000/svg">
<g filter="url(#filter0_d)">
<rect x="4" width="686" height="162" rx="29" fill="black"/>
</g>
<path d="M127.326 70.8789C125.565 56.2656 114.505 47.8622 99.8608 47.8622C83.1467 47.8622 70.3871 59.6641 70.3871 80.3636C70.3871 101.001 82.9304 112.865 99.8608 112.865C116.081 112.865 125.874 102.083 127.326 90.4354L113.794 90.3736C112.528 97.1396 107.214 101.032 100.077 101.032C90.4688 101.032 83.9499 93.8956 83.9499 80.3636C83.9499 67.2024 90.3761 59.695 100.17 59.695C107.492 59.695 112.775 63.9276 113.794 70.8789H127.326ZM158.113 112.927C172.51 112.927 181.47 103.071 181.47 88.4581C181.47 73.7521 172.51 63.9276 158.113 63.9276C143.716 63.9276 134.757 73.7521 134.757 88.4581C134.757 103.071 143.716 112.927 158.113 112.927ZM158.175 102.732C151.532 102.732 148.134 96.6452 148.134 88.3654C148.134 80.0856 151.532 73.9684 158.175 73.9684C164.694 73.9684 168.092 80.0856 168.092 88.3654C168.092 96.6452 164.694 102.732 158.175 102.732ZM232.655 64.5455H218.721L208.897 98.4989H208.402L198.547 64.5455H184.644L201.235 112H216.064L232.655 64.5455ZM239.39 112H252.551V64.5455H239.39V112ZM246.001 58.4283C249.925 58.4283 253.138 55.4315 253.138 51.755C253.138 48.1094 249.925 45.1126 246.001 45.1126C242.109 45.1126 238.896 48.1094 238.896 51.755C238.896 55.4315 242.109 58.4283 246.001 58.4283ZM280.58 112.772C288.242 112.772 292.228 108.354 294.051 104.4H294.607V112H307.583V48.7273H294.452V72.5163H294.051C292.29 68.6545 288.49 63.9276 280.55 63.9276C270.138 63.9276 261.333 72.022 261.333 88.3345C261.333 104.214 269.767 112.772 280.58 112.772ZM284.751 102.299C278.294 102.299 274.772 96.5526 274.772 88.2727C274.772 80.0547 278.232 74.4009 284.751 74.4009C291.146 74.4009 294.73 79.8075 294.73 88.2727C294.73 96.7379 291.085 102.299 284.751 102.299Z" fill="white"/>
<path d="M318.651 112H332.028V89.5703H341.791L353.778 112H368.546L355.107 87.4077C362.305 84.3182 366.291 78.0465 366.291 69.396C366.291 56.8217 357.98 48.7273 343.614 48.7273H318.651V112ZM332.028 78.8189V59.6641H341.049C348.773 59.6641 352.511 63.0934 352.511 69.396C352.511 75.6676 348.773 78.8189 341.111 78.8189H332.028ZM396.359 112.927C408.099 112.927 416.008 107.211 417.862 98.4062L405.689 97.603C404.361 101.218 400.962 103.102 396.575 103.102C389.995 103.102 385.824 98.7461 385.824 91.6712V91.6403H418.14V88.0256C418.14 71.8984 408.377 63.9276 395.834 63.9276C381.869 63.9276 372.817 73.8448 372.817 88.489C372.817 103.535 381.746 112.927 396.359 112.927ZM385.824 83.484C386.102 78.0774 390.211 73.7521 396.05 73.7521C401.766 73.7521 405.72 77.8303 405.751 83.484H385.824ZM466.212 78.0774C465.038 69.3342 457.994 63.9276 446.007 63.9276C433.865 63.9276 425.864 69.5504 425.895 78.6953C425.864 85.8011 430.343 90.4045 439.612 92.2582L447.83 93.8956C451.97 94.7298 453.854 96.2436 453.916 98.6225C453.854 101.434 450.796 103.442 446.192 103.442C441.496 103.442 438.376 101.434 437.573 97.5721L424.628 98.2518C425.864 107.335 433.587 112.927 446.162 112.927C458.458 112.927 467.263 106.655 467.294 97.294C467.263 90.4354 462.783 86.3263 453.576 84.4418L444.988 82.7116C440.57 81.7539 438.932 80.2401 438.963 77.9538C438.932 75.1115 442.145 73.2578 446.223 73.2578C450.796 73.2578 453.515 75.7603 454.163 78.8189L466.212 78.0774ZM497.022 112.927C509.658 112.927 517.598 105.512 518.216 94.6062H505.796C505.024 99.6729 501.687 102.515 497.177 102.515C491.029 102.515 487.043 97.3558 487.043 88.2727C487.043 79.3132 491.06 74.1847 497.177 74.1847C501.996 74.1847 505.086 77.3668 505.796 82.0938H518.216C517.66 71.1261 509.349 63.9276 496.96 63.9276C482.563 63.9276 473.666 73.9066 473.666 88.4581C473.666 102.886 482.409 112.927 497.022 112.927ZM557.074 91.7947C557.105 98.1591 552.749 101.496 548.022 101.496C543.048 101.496 539.835 98.0046 539.804 92.4126V64.5455H526.643V94.7607C526.674 105.852 533.162 112.618 542.708 112.618C549.845 112.618 554.973 108.941 557.105 103.38H557.599V112H570.235V64.5455H557.074V91.7947ZM602.389 112.927C614.129 112.927 622.038 107.211 623.892 98.4062L611.72 97.603C610.391 101.218 606.993 103.102 602.606 103.102C596.025 103.102 591.854 98.7461 591.854 91.6712V91.6403H624.17V88.0256C624.17 71.8984 614.407 63.9276 601.864 63.9276C587.9 63.9276 578.847 73.8448 578.847 88.489C578.847 103.535 587.776 112.927 602.389 112.927ZM591.854 83.484C592.132 78.0774 596.241 73.7521 602.08 73.7521C607.796 73.7521 611.75 77.8303 611.781 83.484H591.854Z" fill="#EF4444"/>
<defs>
<filter id="filter0_d" x="0" y="0" width="694" height="170" filterUnits="userSpaceOnUse" color-interpolation-filters="sRGB">
<feFlood flood-opacity="0" result="BackgroundImageFix"/>
<feColorMatrix in="SourceAlpha" type="matrix" values="0 0 0 0 0 0 0 0 0 0 0 0 0 0 0 0 0 0 127 0"/>
<feOffset dy="4"/>
<feGaussianBlur stdDeviation="2"/>
<feColorMatrix type="matrix" values="0 0 0 0 0 0 0 0 0 0 0 0 0 0 0 0 0 0 0.25 0"/>
<feBlend mode="normal" in2="BackgroundImageFix" result="effect1_dropShadow"/>
<feBlend mode="normal" in="SourceGraphic" in2="effect1_dropShadow" result="shape"/>
</filter>
</defs>
</svg>
