<svg width="694" height="170" viewBox="0 0 694 170" fill="none" xmlns="http://www.w3.org/2000/svg">
<g filter="url(#filter0_d)">
<rect x="4" width="686" height="162" rx="29" fill="black"/>
</g>
<path d="M167.326 70.8789C165.565 56.2656 154.505 47.8622 139.861 47.8622C123.147 47.8622 110.387 59.6641 110.387 80.3636C110.387 101.001 122.93 112.865 139.861 112.865C156.081 112.865 165.874 102.083 167.326 90.4354L153.794 90.3736C152.528 97.1396 147.214 101.032 140.077 101.032C130.469 101.032 123.95 93.8956 123.95 80.3636C123.95 67.2024 130.376 59.695 140.17 59.695C147.492 59.695 152.775 63.9276 153.794 70.8789H167.326ZM198.113 112.927C212.51 112.927 221.47 103.071 221.47 88.4581C221.47 73.7521 212.51 63.9276 198.113 63.9276C183.716 63.9276 174.757 73.7521 174.757 88.4581C174.757 103.071 183.716 112.927 198.113 112.927ZM198.175 102.732C191.532 102.732 188.134 96.6452 188.134 88.3654C188.134 80.0856 191.532 73.9684 198.175 73.9684C204.694 73.9684 208.092 80.0856 208.092 88.3654C208.092 96.6452 204.694 102.732 198.175 102.732ZM272.655 64.5455H258.721L248.897 98.4989H248.402L238.547 64.5455H224.644L241.235 112H256.064L272.655 64.5455ZM279.39 112H292.551V64.5455H279.39V112ZM286.001 58.4283C289.925 58.4283 293.138 55.4315 293.138 51.755C293.138 48.1094 289.925 45.1126 286.001 45.1126C282.109 45.1126 278.896 48.1094 278.896 51.755C278.896 55.4315 282.109 58.4283 286.001 58.4283ZM320.58 112.772C328.242 112.772 332.228 108.354 334.051 104.4H334.607V112H347.583V48.7273H334.452V72.5163H334.051C332.29 68.6545 328.49 63.9276 320.55 63.9276C310.138 63.9276 301.333 72.022 301.333 88.3345C301.333 104.214 309.767 112.772 320.58 112.772ZM324.751 102.299C318.294 102.299 314.772 96.5526 314.772 88.2727C314.772 80.0547 318.232 74.4009 324.751 74.4009C331.146 74.4009 334.73 79.8075 334.73 88.2727C334.73 96.7379 331.085 102.299 324.751 102.299Z" fill="white"/>
<path d="M358.651 112H372.028V89.5703H381.791L393.778 112H408.546L395.107 87.4077C402.305 84.3182 406.291 78.0465 406.291 69.396C406.291 56.8217 397.98 48.7273 383.614 48.7273H358.651V112ZM372.028 78.8189V59.6641H381.049C388.773 59.6641 392.511 63.0934 392.511 69.396C392.511 75.6676 388.773 78.8189 381.111 78.8189H372.028ZM436.359 112.927C448.099 112.927 456.008 107.211 457.862 98.4062L445.689 97.603C444.361 101.218 440.962 103.102 436.575 103.102C429.995 103.102 425.824 98.7461 425.824 91.6712V91.6403H458.14V88.0256C458.14 71.8984 448.377 63.9276 435.834 63.9276C421.869 63.9276 412.817 73.8448 412.817 88.489C412.817 103.535 421.746 112.927 436.359 112.927ZM425.824 83.484C426.102 78.0774 430.211 73.7521 436.05 73.7521C441.766 73.7521 445.72 77.8303 445.751 83.484H425.824ZM479.89 48.7273H466.729V112H479.89V48.7273ZM490.433 112H503.594V64.5455H490.433V112ZM497.044 58.4283C500.968 58.4283 504.181 55.4315 504.181 51.755C504.181 48.1094 500.968 45.1126 497.044 45.1126C493.152 45.1126 489.938 48.1094 489.938 51.755C489.938 55.4315 493.152 58.4283 497.044 58.4283ZM535.763 112.927C547.503 112.927 555.412 107.211 557.266 98.4062L545.094 97.603C543.765 101.218 540.367 103.102 535.98 103.102C529.399 103.102 525.228 98.7461 525.228 91.6712V91.6403H557.544V88.0256C557.544 71.8984 547.781 63.9276 535.238 63.9276C521.274 63.9276 512.221 73.8448 512.221 88.489C512.221 103.535 521.15 112.927 535.763 112.927ZM525.228 83.484C525.506 78.0774 529.615 73.7521 535.454 73.7521C541.17 73.7521 545.124 77.8303 545.155 83.484H525.228ZM591.652 64.5455H582.229V61.3633C582.229 58.1502 583.527 56.2656 587.389 56.2656C588.964 56.2656 590.571 56.6055 591.621 56.9453L593.938 47.0589C592.301 46.5646 588.686 45.7614 584.639 45.7614C575.71 45.7614 569.068 50.7972 569.068 61.1161V64.5455H562.364V74.4318H569.068V112H582.229V74.4318H591.652V64.5455Z" fill="#EF4444"/>
<defs>
<filter id="filter0_d" x="0" y="0" width="694" height="170" filterUnits="userSpaceOnUse" color-interpolation-filters="sRGB">
<feFlood flood-opacity="0" result="BackgroundImageFix"/>
<feColorMatrix in="SourceAlpha" type="matrix" values="0 0 0 0 0 0 0 0 0 0 0 0 0 0 0 0 0 0 127 0"/>
<feOffset dy="4"/>
<feGaussianBlur stdDeviation="2"/>
<feColorMatrix type="matrix" values="0 0 0 0 0 0 0 0 0 0 0 0 0 0 0 0 0 0 0.25 0"/>
<feBlend mode="normal" in2="BackgroundImageFix" result="effect1_dropShadow"/>
<feBlend mode="normal" in="SourceGraphic" in2="effect1_dropShadow" result="shape"/>
</filter>
</defs>
</svg>
